<?xml version="1.0" encoding="iso-8859-1"?>
<!-- Generator: Adobe Illustrator 19.0.0, SVG Export Plug-In . SVG Version: 6.00 Build 0)  -->
<svg version="1.1" id="Layer_1" xmlns="http://www.w3.org/2000/svg" xmlns:xlink="http://www.w3.org/1999/xlink" x="0px" y="0px"
	 viewBox="0 0 512 512" style="enable-background:new 0 0 512 512;" xml:space="preserve">
<circle style="fill:#366695;" cx="256" cy="256" r="256"/>
<path style="fill:#273B7A;" d="M506.501,308.962L377.185,179.646c-1.002-1.002-44.832-44.834-44.832-44.834L111.457,400.544
	l108.987,108.987C232.067,511.145,243.933,512,256,512C379.227,512,482.104,424.931,506.501,308.962z"/>
<path style="fill:#263A7A;" d="M124.868,406.097c-4.853,0-9.706-1.852-13.409-5.554c-7.406-7.406-7.406-19.413,0-26.819
	l140.793-140.795c7.408-7.404,19.411-7.404,26.819,0c7.406,7.406,7.406,19.413,0,26.819L138.278,400.543
	C134.572,404.246,129.72,406.097,124.868,406.097z"/>
<path style="fill:#121149;" d="M278.164,232.114L110.64,399.638c0.269,0.305,0.528,0.615,0.819,0.907
	c3.703,3.701,8.556,5.554,13.409,5.554s9.706-1.851,13.409-5.554l140.793-140.795c7.406-7.406,7.406-19.413,0-26.819
	C278.778,232.639,278.468,232.381,278.164,232.114z"/>
<path style="fill:#FFC61B;" d="M213.244,153.695c6.509-6.509,33.828,15.801,41.608,11.835c8.064-4.112,6.132-39.245,14.888-40.624
	c8.842-1.393,17.861,32.666,26.703,34.059c8.754,1.379,27.848-28.263,35.912-24.152c7.78,3.967-4.939,36.754,1.57,43.263
	c6.509,6.509,39.296-6.211,43.261,1.57c4.111,8.064-25.531,27.158-24.152,35.912c1.393,8.842,35.45,17.861,34.057,26.703
	c-1.379,8.754-36.512,6.823-40.622,14.886c-3.967,7.78,18.344,35.1,11.835,41.61s-33.828-15.801-41.608-11.835
	c-8.064,4.112-6.132,39.245-14.888,40.624c-8.842,1.393-17.861-32.666-26.703-34.059c-8.754-1.379-27.848,28.263-35.912,24.152
	c-7.78-3.967,4.939-36.754-1.57-43.263c-6.509-6.509-39.296,6.211-43.261-1.57c-4.112-8.064,25.531-27.158,24.152-35.912
	c-1.393-8.842-35.45-17.861-34.057-26.703c1.379-8.754,36.512-6.823,40.622-14.886C229.045,187.523,206.734,160.204,213.244,153.695
	z"/>
<path style="fill:#D48B07;" d="M353.033,215.559c-1.379-8.754,28.263-27.848,24.152-35.912c-3.967-7.78-36.752,4.939-43.261-1.57
	c-0.279-0.279-0.512-0.626-0.724-0.998l-96.575,96.575c0.374,0.212,0.719,0.445,0.998,0.726c6.509,6.509-6.211,39.296,1.57,43.263
	c8.064,4.112,27.157-25.533,35.912-24.152c8.842,1.393,17.861,35.452,26.703,34.059c8.754-1.379,6.823-36.512,14.888-40.624
	c7.78-3.967,35.099,18.344,41.608,11.835c6.509-6.509-15.801-33.828-11.835-41.61c4.112-8.064,39.243-6.132,40.622-14.886
	C388.484,233.42,354.426,224.401,353.033,215.559z"/>
<path style="fill:#FEE187;" d="M244.6,185.051c3.696-3.696,19.204,8.969,23.621,6.718c4.577-2.334,3.481-22.278,8.451-23.061
	c5.02-0.791,10.14,18.544,15.158,19.335c4.97,0.783,15.808-16.044,20.387-13.71c4.417,2.251-2.805,20.864,0.891,24.559
	c3.696,3.696,22.307-3.525,24.559,0.891c2.334,4.579-14.495,15.417-13.71,20.387c0.791,5.02,20.125,10.14,19.334,15.158
	c-0.783,4.97-20.727,3.874-23.061,8.451c-2.251,4.417,10.414,19.925,6.718,23.621s-19.204-8.969-23.621-6.718
	c-4.577,2.334-3.481,22.278-8.451,23.061c-5.02,0.791-10.14-18.544-15.158-19.335c-4.97-0.783-15.808,16.044-20.387,13.71
	c-4.417-2.251,2.805-20.864-0.891-24.559c-3.696-3.696-22.307,3.525-24.559-0.891c-2.334-4.579,14.495-15.417,13.71-20.387
	c-0.791-5.02-20.125-10.14-19.334-15.158c0.783-4.97,20.727-3.874,23.061-8.451C253.569,204.255,240.904,188.747,244.6,185.051z"/>
<path style="fill:#FFC61B;" d="M323.956,220.17c-0.783-4.97,16.044-15.808,13.71-20.387c-2.251-4.417-20.864,2.803-24.559-0.891
	c-0.276-0.276-0.474-0.657-0.638-1.084l-55.115,55.115c0.429,0.164,0.81,0.362,1.086,0.638c3.694,3.696-3.525,22.307,0.891,24.559
	c4.577,2.334,15.417-14.495,20.387-13.71c5.02,0.791,10.14,20.125,15.158,19.335c4.97-0.783,3.874-20.728,8.451-23.061
	c4.417-2.251,19.925,10.414,23.621,6.718c3.694-3.694-8.969-19.204-6.718-23.621c2.334-4.579,22.278-3.481,23.061-8.451
	C344.081,230.31,324.746,225.19,323.956,220.17z"/>
<g>
</g>
<g>
</g>
<g>
</g>
<g>
</g>
<g>
</g>
<g>
</g>
<g>
</g>
<g>
</g>
<g>
</g>
<g>
</g>
<g>
</g>
<g>
</g>
<g>
</g>
<g>
</g>
<g>
</g>
</svg>
